G75*
%MOIN*%
%OFA0B0*%
%FSLAX24Y24*%
%IPPOS*%
%LPD*%
%AMOC8*
5,1,8,0,0,1.08239X$1,22.5*
%
%ADD10C,0.0000*%
%ADD11C,0.0040*%
%ADD12C,0.0060*%
%ADD13C,0.0050*%
%ADD14R,0.0200X0.0800*%
%ADD15R,0.0250X0.0200*%
%ADD16C,0.0160*%
%ADD17C,0.0200*%
%ADD18C,0.0080*%
%ADD19C,0.0100*%
D10*
X000180Y000180D02*
X000180Y015176D01*
X015050Y015176D01*
X015050Y000180D01*
X000180Y000180D01*
X000550Y001180D02*
X000552Y001230D01*
X000558Y001280D01*
X000568Y001329D01*
X000582Y001377D01*
X000599Y001424D01*
X000620Y001469D01*
X000645Y001513D01*
X000673Y001554D01*
X000705Y001593D01*
X000739Y001630D01*
X000776Y001664D01*
X000816Y001694D01*
X000858Y001721D01*
X000902Y001745D01*
X000948Y001766D01*
X000995Y001782D01*
X001043Y001795D01*
X001093Y001804D01*
X001142Y001809D01*
X001193Y001810D01*
X001243Y001807D01*
X001292Y001800D01*
X001341Y001789D01*
X001389Y001774D01*
X001435Y001756D01*
X001480Y001734D01*
X001523Y001708D01*
X001564Y001679D01*
X001603Y001647D01*
X001639Y001612D01*
X001671Y001574D01*
X001701Y001534D01*
X001728Y001491D01*
X001751Y001447D01*
X001770Y001401D01*
X001786Y001353D01*
X001798Y001304D01*
X001806Y001255D01*
X001810Y001205D01*
X001810Y001155D01*
X001806Y001105D01*
X001798Y001056D01*
X001786Y001007D01*
X001770Y000959D01*
X001751Y000913D01*
X001728Y000869D01*
X001701Y000826D01*
X001671Y000786D01*
X001639Y000748D01*
X001603Y000713D01*
X001564Y000681D01*
X001523Y000652D01*
X001480Y000626D01*
X001435Y000604D01*
X001389Y000586D01*
X001341Y000571D01*
X001292Y000560D01*
X001243Y000553D01*
X001193Y000550D01*
X001142Y000551D01*
X001093Y000556D01*
X001043Y000565D01*
X000995Y000578D01*
X000948Y000594D01*
X000902Y000615D01*
X000858Y000639D01*
X000816Y000666D01*
X000776Y000696D01*
X000739Y000730D01*
X000705Y000767D01*
X000673Y000806D01*
X000645Y000847D01*
X000620Y000891D01*
X000599Y000936D01*
X000582Y000983D01*
X000568Y001031D01*
X000558Y001080D01*
X000552Y001130D01*
X000550Y001180D01*
X000550Y014180D02*
X000552Y014230D01*
X000558Y014280D01*
X000568Y014329D01*
X000582Y014377D01*
X000599Y014424D01*
X000620Y014469D01*
X000645Y014513D01*
X000673Y014554D01*
X000705Y014593D01*
X000739Y014630D01*
X000776Y014664D01*
X000816Y014694D01*
X000858Y014721D01*
X000902Y014745D01*
X000948Y014766D01*
X000995Y014782D01*
X001043Y014795D01*
X001093Y014804D01*
X001142Y014809D01*
X001193Y014810D01*
X001243Y014807D01*
X001292Y014800D01*
X001341Y014789D01*
X001389Y014774D01*
X001435Y014756D01*
X001480Y014734D01*
X001523Y014708D01*
X001564Y014679D01*
X001603Y014647D01*
X001639Y014612D01*
X001671Y014574D01*
X001701Y014534D01*
X001728Y014491D01*
X001751Y014447D01*
X001770Y014401D01*
X001786Y014353D01*
X001798Y014304D01*
X001806Y014255D01*
X001810Y014205D01*
X001810Y014155D01*
X001806Y014105D01*
X001798Y014056D01*
X001786Y014007D01*
X001770Y013959D01*
X001751Y013913D01*
X001728Y013869D01*
X001701Y013826D01*
X001671Y013786D01*
X001639Y013748D01*
X001603Y013713D01*
X001564Y013681D01*
X001523Y013652D01*
X001480Y013626D01*
X001435Y013604D01*
X001389Y013586D01*
X001341Y013571D01*
X001292Y013560D01*
X001243Y013553D01*
X001193Y013550D01*
X001142Y013551D01*
X001093Y013556D01*
X001043Y013565D01*
X000995Y013578D01*
X000948Y013594D01*
X000902Y013615D01*
X000858Y013639D01*
X000816Y013666D01*
X000776Y013696D01*
X000739Y013730D01*
X000705Y013767D01*
X000673Y013806D01*
X000645Y013847D01*
X000620Y013891D01*
X000599Y013936D01*
X000582Y013983D01*
X000568Y014031D01*
X000558Y014080D01*
X000552Y014130D01*
X000550Y014180D01*
X013550Y014180D02*
X013552Y014230D01*
X013558Y014280D01*
X013568Y014329D01*
X013582Y014377D01*
X013599Y014424D01*
X013620Y014469D01*
X013645Y014513D01*
X013673Y014554D01*
X013705Y014593D01*
X013739Y014630D01*
X013776Y014664D01*
X013816Y014694D01*
X013858Y014721D01*
X013902Y014745D01*
X013948Y014766D01*
X013995Y014782D01*
X014043Y014795D01*
X014093Y014804D01*
X014142Y014809D01*
X014193Y014810D01*
X014243Y014807D01*
X014292Y014800D01*
X014341Y014789D01*
X014389Y014774D01*
X014435Y014756D01*
X014480Y014734D01*
X014523Y014708D01*
X014564Y014679D01*
X014603Y014647D01*
X014639Y014612D01*
X014671Y014574D01*
X014701Y014534D01*
X014728Y014491D01*
X014751Y014447D01*
X014770Y014401D01*
X014786Y014353D01*
X014798Y014304D01*
X014806Y014255D01*
X014810Y014205D01*
X014810Y014155D01*
X014806Y014105D01*
X014798Y014056D01*
X014786Y014007D01*
X014770Y013959D01*
X014751Y013913D01*
X014728Y013869D01*
X014701Y013826D01*
X014671Y013786D01*
X014639Y013748D01*
X014603Y013713D01*
X014564Y013681D01*
X014523Y013652D01*
X014480Y013626D01*
X014435Y013604D01*
X014389Y013586D01*
X014341Y013571D01*
X014292Y013560D01*
X014243Y013553D01*
X014193Y013550D01*
X014142Y013551D01*
X014093Y013556D01*
X014043Y013565D01*
X013995Y013578D01*
X013948Y013594D01*
X013902Y013615D01*
X013858Y013639D01*
X013816Y013666D01*
X013776Y013696D01*
X013739Y013730D01*
X013705Y013767D01*
X013673Y013806D01*
X013645Y013847D01*
X013620Y013891D01*
X013599Y013936D01*
X013582Y013983D01*
X013568Y014031D01*
X013558Y014080D01*
X013552Y014130D01*
X013550Y014180D01*
X013550Y001180D02*
X013552Y001230D01*
X013558Y001280D01*
X013568Y001329D01*
X013582Y001377D01*
X013599Y001424D01*
X013620Y001469D01*
X013645Y001513D01*
X013673Y001554D01*
X013705Y001593D01*
X013739Y001630D01*
X013776Y001664D01*
X013816Y001694D01*
X013858Y001721D01*
X013902Y001745D01*
X013948Y001766D01*
X013995Y001782D01*
X014043Y001795D01*
X014093Y001804D01*
X014142Y001809D01*
X014193Y001810D01*
X014243Y001807D01*
X014292Y001800D01*
X014341Y001789D01*
X014389Y001774D01*
X014435Y001756D01*
X014480Y001734D01*
X014523Y001708D01*
X014564Y001679D01*
X014603Y001647D01*
X014639Y001612D01*
X014671Y001574D01*
X014701Y001534D01*
X014728Y001491D01*
X014751Y001447D01*
X014770Y001401D01*
X014786Y001353D01*
X014798Y001304D01*
X014806Y001255D01*
X014810Y001205D01*
X014810Y001155D01*
X014806Y001105D01*
X014798Y001056D01*
X014786Y001007D01*
X014770Y000959D01*
X014751Y000913D01*
X014728Y000869D01*
X014701Y000826D01*
X014671Y000786D01*
X014639Y000748D01*
X014603Y000713D01*
X014564Y000681D01*
X014523Y000652D01*
X014480Y000626D01*
X014435Y000604D01*
X014389Y000586D01*
X014341Y000571D01*
X014292Y000560D01*
X014243Y000553D01*
X014193Y000550D01*
X014142Y000551D01*
X014093Y000556D01*
X014043Y000565D01*
X013995Y000578D01*
X013948Y000594D01*
X013902Y000615D01*
X013858Y000639D01*
X013816Y000666D01*
X013776Y000696D01*
X013739Y000730D01*
X013705Y000767D01*
X013673Y000806D01*
X013645Y000847D01*
X013620Y000891D01*
X013599Y000936D01*
X013582Y000983D01*
X013568Y001031D01*
X013558Y001080D01*
X013552Y001130D01*
X013550Y001180D01*
D11*
X013550Y003786D02*
X013550Y004495D01*
X013552Y004511D01*
X013557Y004527D01*
X013565Y004541D01*
X013576Y004554D01*
X013590Y004563D01*
X013605Y004570D01*
X013621Y004574D01*
X013637Y004574D01*
X013653Y004570D01*
X013669Y004563D01*
X013682Y004554D01*
X013693Y004541D01*
X013701Y004527D01*
X013706Y004511D01*
X013708Y004495D01*
X013708Y003944D01*
X013707Y003944D02*
X013709Y003928D01*
X013714Y003912D01*
X013722Y003898D01*
X013733Y003885D01*
X013747Y003876D01*
X013762Y003869D01*
X013778Y003865D01*
X013794Y003865D01*
X013810Y003869D01*
X013826Y003876D01*
X013839Y003885D01*
X013850Y003898D01*
X013858Y003912D01*
X013863Y003928D01*
X013865Y003944D01*
X013865Y004337D01*
X013867Y004353D01*
X013872Y004369D01*
X013880Y004383D01*
X013891Y004396D01*
X013905Y004405D01*
X013920Y004412D01*
X013936Y004416D01*
X013952Y004416D01*
X013968Y004412D01*
X013984Y004405D01*
X013997Y004396D01*
X014008Y004383D01*
X014016Y004369D01*
X014021Y004353D01*
X014023Y004337D01*
X014023Y004101D01*
X014022Y004101D02*
X014024Y004085D01*
X014029Y004069D01*
X014037Y004055D01*
X014048Y004042D01*
X014062Y004033D01*
X014077Y004026D01*
X014093Y004022D01*
X014109Y004022D01*
X014125Y004026D01*
X014141Y004033D01*
X014154Y004042D01*
X014165Y004055D01*
X014173Y004069D01*
X014178Y004085D01*
X014180Y004101D01*
X014180Y004259D01*
X014182Y004275D01*
X014187Y004291D01*
X014195Y004305D01*
X014206Y004318D01*
X014220Y004327D01*
X014235Y004334D01*
X014251Y004338D01*
X014267Y004338D01*
X014283Y004334D01*
X014299Y004327D01*
X014312Y004318D01*
X014323Y004305D01*
X014331Y004291D01*
X014336Y004275D01*
X014338Y004259D01*
X014337Y004259D02*
X014337Y004023D01*
X014339Y004007D01*
X014344Y003991D01*
X014352Y003977D01*
X014363Y003964D01*
X014377Y003955D01*
X014392Y003948D01*
X014408Y003944D01*
X014424Y003944D01*
X014440Y003948D01*
X014456Y003955D01*
X014469Y003964D01*
X014480Y003977D01*
X014488Y003991D01*
X014493Y004007D01*
X014495Y004023D01*
X014495Y004416D01*
X014497Y004432D01*
X014502Y004448D01*
X014510Y004462D01*
X014521Y004475D01*
X014535Y004484D01*
X014550Y004491D01*
X014566Y004495D01*
X014582Y004495D01*
X014598Y004491D01*
X014614Y004484D01*
X014627Y004475D01*
X014638Y004462D01*
X014646Y004448D01*
X014651Y004432D01*
X014653Y004416D01*
X014652Y004416D02*
X014652Y003786D01*
X014654Y003770D01*
X014659Y003754D01*
X014667Y003740D01*
X014678Y003727D01*
X014692Y003718D01*
X014707Y003711D01*
X014723Y003707D01*
X014739Y003707D01*
X014755Y003711D01*
X014771Y003718D01*
X014784Y003727D01*
X014795Y003740D01*
X014803Y003754D01*
X014808Y003770D01*
X014810Y003786D01*
X014810Y004574D01*
X014812Y004589D01*
X014816Y004604D01*
X014823Y004618D01*
X014833Y004630D01*
X014845Y004640D01*
X014859Y004647D01*
X014874Y004651D01*
X014889Y004653D01*
X013550Y003786D02*
X013548Y003771D01*
X013544Y003756D01*
X013537Y003742D01*
X013527Y003730D01*
X013515Y003720D01*
X013501Y003713D01*
X013486Y003709D01*
X013471Y003707D01*
X006967Y001160D02*
X006967Y000700D01*
X006814Y000853D01*
X006660Y000700D01*
X006660Y001160D01*
X006507Y001084D02*
X006430Y001160D01*
X006277Y001160D01*
X006200Y001084D01*
X006200Y001007D01*
X006277Y000930D01*
X006430Y000930D01*
X006507Y000853D01*
X006507Y000777D01*
X006430Y000700D01*
X006277Y000700D01*
X006200Y000777D01*
X003928Y000777D02*
X003928Y001084D01*
X003851Y001160D01*
X003621Y001160D01*
X003621Y000700D01*
X003851Y000700D01*
X003928Y000777D01*
X003467Y000700D02*
X003467Y001160D01*
X003160Y001160D02*
X003467Y000700D01*
X003160Y000700D02*
X003160Y001160D01*
X003007Y001084D02*
X002930Y001160D01*
X002777Y001160D01*
X002700Y001084D01*
X002700Y000777D01*
X002777Y000700D01*
X002930Y000700D01*
X003007Y000777D01*
X003007Y000930D01*
X002853Y000930D01*
X001853Y006700D02*
X002007Y006853D01*
X002007Y007160D01*
X001700Y007160D02*
X001700Y006853D01*
X001853Y006700D01*
X001777Y008200D02*
X001930Y008200D01*
X002007Y008277D01*
X002007Y008584D01*
X001930Y008660D01*
X001777Y008660D01*
X001700Y008584D01*
X001700Y008277D01*
X001777Y008200D01*
X003200Y008277D02*
X003277Y008200D01*
X003430Y008200D01*
X003507Y008277D01*
X003507Y008430D01*
X003353Y008430D01*
X003200Y008277D02*
X003200Y008584D01*
X003277Y008660D01*
X003430Y008660D01*
X003507Y008584D01*
X003467Y014200D02*
X003467Y014660D01*
X003621Y014660D02*
X003851Y014660D01*
X003928Y014584D01*
X003928Y014277D01*
X003851Y014200D01*
X003621Y014200D01*
X003621Y014660D01*
X003160Y014660D02*
X003160Y014200D01*
X003007Y014277D02*
X003007Y014430D01*
X002853Y014430D01*
X002700Y014277D02*
X002777Y014200D01*
X002930Y014200D01*
X003007Y014277D01*
X003007Y014584D02*
X002930Y014660D01*
X002777Y014660D01*
X002700Y014584D01*
X002700Y014277D01*
X003160Y014660D02*
X003467Y014200D01*
X006200Y014277D02*
X006277Y014200D01*
X006430Y014200D01*
X006507Y014277D01*
X006507Y014353D01*
X006430Y014430D01*
X006277Y014430D01*
X006200Y014507D01*
X006200Y014584D01*
X006277Y014660D01*
X006430Y014660D01*
X006507Y014584D01*
X006660Y014660D02*
X006660Y014200D01*
X006814Y014353D01*
X006967Y014200D01*
X006967Y014660D01*
D12*
X006180Y014080D02*
X006080Y014180D01*
X005280Y014180D01*
X005180Y014080D01*
X005080Y014180D01*
X004280Y014180D01*
X004180Y014080D01*
X004180Y013280D01*
X004280Y013180D01*
X005080Y013180D01*
X005180Y013280D01*
X005280Y013180D01*
X006080Y013180D01*
X006180Y013280D01*
X006180Y014080D01*
X008780Y011980D02*
X008780Y011380D01*
X008782Y011363D01*
X008786Y011346D01*
X008793Y011330D01*
X008803Y011316D01*
X008816Y011303D01*
X008830Y011293D01*
X008846Y011286D01*
X008863Y011282D01*
X008880Y011280D01*
X010480Y011280D01*
X010497Y011282D01*
X010514Y011286D01*
X010530Y011293D01*
X010544Y011303D01*
X010557Y011316D01*
X010567Y011330D01*
X010574Y011346D01*
X010578Y011363D01*
X010580Y011380D01*
X010580Y011980D01*
X010578Y011997D01*
X010574Y012014D01*
X010567Y012030D01*
X010557Y012044D01*
X010544Y012057D01*
X010530Y012067D01*
X010514Y012074D01*
X010497Y012078D01*
X010480Y012080D01*
X008880Y012080D01*
X008863Y012078D01*
X008846Y012074D01*
X008830Y012067D01*
X008816Y012057D01*
X008803Y012044D01*
X008793Y012030D01*
X008786Y012014D01*
X008782Y011997D01*
X008780Y011980D01*
X009080Y011680D02*
X009680Y011680D01*
X009680Y011930D01*
X009680Y011680D02*
X009680Y011430D01*
X009680Y011680D02*
X009280Y011430D01*
X009280Y011930D01*
X009680Y011680D01*
X009930Y011680D01*
X010080Y010682D02*
X010830Y010682D01*
X010830Y000682D01*
X008530Y000682D01*
X008530Y010682D01*
X009280Y010682D01*
X009282Y010643D01*
X009288Y010604D01*
X009297Y010566D01*
X009310Y010529D01*
X009327Y010493D01*
X009347Y010460D01*
X009371Y010428D01*
X009397Y010399D01*
X009426Y010373D01*
X009458Y010349D01*
X009491Y010329D01*
X009527Y010312D01*
X009564Y010299D01*
X009602Y010290D01*
X009641Y010284D01*
X009680Y010282D01*
X009719Y010284D01*
X009758Y010290D01*
X009796Y010299D01*
X009833Y010312D01*
X009869Y010329D01*
X009902Y010349D01*
X009934Y010373D01*
X009963Y010399D01*
X009989Y010428D01*
X010013Y010460D01*
X010033Y010493D01*
X010050Y010529D01*
X010063Y010566D01*
X010072Y010604D01*
X010078Y010643D01*
X010080Y010682D01*
X012380Y012180D02*
X012530Y012180D01*
X012530Y012330D01*
X012530Y012180D02*
X012680Y012180D01*
X012530Y012180D02*
X012530Y012030D01*
X012080Y011680D02*
X012082Y011746D01*
X012088Y011811D01*
X012098Y011876D01*
X012111Y011941D01*
X012129Y012004D01*
X012150Y012067D01*
X012175Y012127D01*
X012204Y012187D01*
X012236Y012244D01*
X012271Y012300D01*
X012310Y012353D01*
X012352Y012404D01*
X012396Y012452D01*
X012444Y012497D01*
X012494Y012540D01*
X012547Y012579D01*
X012602Y012616D01*
X012659Y012649D01*
X012718Y012678D01*
X012778Y012704D01*
X012840Y012726D01*
X012903Y012745D01*
X012967Y012759D01*
X013032Y012770D01*
X013098Y012777D01*
X013164Y012780D01*
X013229Y012779D01*
X013295Y012774D01*
X013360Y012765D01*
X013425Y012752D01*
X013488Y012736D01*
X013551Y012716D01*
X013612Y012691D01*
X013672Y012664D01*
X013730Y012633D01*
X013786Y012598D01*
X013840Y012560D01*
X013891Y012519D01*
X013940Y012475D01*
X013986Y012428D01*
X014030Y012379D01*
X014070Y012327D01*
X014107Y012272D01*
X014141Y012216D01*
X014171Y012157D01*
X014198Y012097D01*
X014221Y012036D01*
X014240Y011973D01*
X014256Y011909D01*
X014268Y011844D01*
X014276Y011779D01*
X014280Y011713D01*
X014280Y011647D01*
X014276Y011581D01*
X014268Y011516D01*
X014256Y011451D01*
X014240Y011387D01*
X014221Y011324D01*
X014198Y011263D01*
X014171Y011203D01*
X014141Y011144D01*
X014107Y011088D01*
X014070Y011033D01*
X014030Y010981D01*
X013986Y010932D01*
X013940Y010885D01*
X013891Y010841D01*
X013840Y010800D01*
X013786Y010762D01*
X013730Y010727D01*
X013672Y010696D01*
X013612Y010669D01*
X013551Y010644D01*
X013488Y010624D01*
X013425Y010608D01*
X013360Y010595D01*
X013295Y010586D01*
X013229Y010581D01*
X013164Y010580D01*
X013098Y010583D01*
X013032Y010590D01*
X012967Y010601D01*
X012903Y010615D01*
X012840Y010634D01*
X012778Y010656D01*
X012718Y010682D01*
X012659Y010711D01*
X012602Y010744D01*
X012547Y010781D01*
X012494Y010820D01*
X012444Y010863D01*
X012396Y010908D01*
X012352Y010956D01*
X012310Y011007D01*
X012271Y011060D01*
X012236Y011116D01*
X012204Y011173D01*
X012175Y011233D01*
X012150Y011293D01*
X012129Y011356D01*
X012111Y011419D01*
X012098Y011484D01*
X012088Y011549D01*
X012082Y011614D01*
X012080Y011680D01*
X013280Y010225D02*
X013280Y010067D01*
X013830Y010005D02*
X013830Y008355D01*
X013280Y008293D02*
X013280Y008135D01*
X013280Y007680D02*
X014080Y007680D01*
X014180Y007580D01*
X014180Y006780D01*
X014080Y006680D01*
X014180Y006580D01*
X014180Y005780D01*
X014080Y005680D01*
X013280Y005680D01*
X013180Y005780D01*
X013180Y006580D01*
X013280Y006680D01*
X013180Y006780D01*
X013180Y007580D01*
X013280Y007680D01*
X013280Y009067D02*
X013280Y009293D01*
X013830Y010005D02*
X013779Y010042D01*
X013726Y010077D01*
X013670Y010109D01*
X013613Y010137D01*
X013554Y010161D01*
X013494Y010182D01*
X013433Y010199D01*
X013371Y010213D01*
X013308Y010222D01*
X013245Y010228D01*
X013181Y010230D01*
X013117Y010228D01*
X013054Y010222D01*
X012991Y010213D01*
X012929Y010200D01*
X012868Y010182D01*
X012808Y010162D01*
X012749Y010137D01*
X012692Y010110D01*
X012636Y010078D01*
X012583Y010044D01*
X012532Y010006D01*
X012483Y009965D01*
X012437Y009921D01*
X012393Y009875D01*
X012352Y009826D01*
X012315Y009775D01*
X012280Y009721D01*
X012249Y009666D01*
X012221Y009609D01*
X012197Y009550D01*
X012177Y009490D01*
X012177Y008870D02*
X012197Y008810D01*
X012221Y008751D01*
X012249Y008694D01*
X012280Y008639D01*
X012315Y008585D01*
X012352Y008534D01*
X012393Y008485D01*
X012437Y008439D01*
X012483Y008395D01*
X012532Y008354D01*
X012583Y008316D01*
X012636Y008282D01*
X012692Y008250D01*
X012749Y008223D01*
X012808Y008198D01*
X012868Y008178D01*
X012929Y008160D01*
X012991Y008147D01*
X013054Y008138D01*
X013117Y008132D01*
X013181Y008130D01*
X013245Y008132D01*
X013308Y008138D01*
X013371Y008147D01*
X013433Y008161D01*
X013494Y008178D01*
X013554Y008199D01*
X013613Y008223D01*
X013670Y008251D01*
X013726Y008283D01*
X013779Y008318D01*
X013830Y008355D01*
X013180Y004680D02*
X012180Y004680D01*
X012163Y004678D01*
X012146Y004674D01*
X012130Y004667D01*
X012116Y004657D01*
X012103Y004644D01*
X012093Y004630D01*
X012086Y004614D01*
X012082Y004597D01*
X012080Y004580D01*
X012080Y000780D01*
X012082Y000763D01*
X012086Y000746D01*
X012093Y000730D01*
X012103Y000716D01*
X012116Y000703D01*
X012130Y000693D01*
X012146Y000686D01*
X012163Y000682D01*
X012180Y000680D01*
X013180Y000680D01*
X013197Y000682D01*
X013214Y000686D01*
X013230Y000693D01*
X013244Y000703D01*
X013257Y000716D01*
X013267Y000730D01*
X013274Y000746D01*
X013278Y000763D01*
X013280Y000780D01*
X013280Y004580D01*
X013278Y004597D01*
X013274Y004614D01*
X013267Y004630D01*
X013257Y004644D01*
X013244Y004657D01*
X013230Y004667D01*
X013214Y004674D01*
X013197Y004678D01*
X013180Y004680D01*
X012680Y003680D02*
X012680Y002880D01*
X012680Y002480D02*
X012680Y001680D01*
X006180Y001280D02*
X006180Y002080D01*
X006080Y002180D01*
X005280Y002180D01*
X005180Y002080D01*
X005080Y002180D01*
X004280Y002180D01*
X004180Y002080D01*
X004180Y001280D01*
X004280Y001180D01*
X005080Y001180D01*
X005180Y001280D01*
X005280Y001180D01*
X006080Y001180D01*
X006180Y001280D01*
X003680Y002780D02*
X003580Y002680D01*
X002780Y002680D01*
X002680Y002780D01*
X002580Y002680D01*
X001780Y002680D01*
X001680Y002780D01*
X001580Y002680D01*
X000780Y002680D01*
X000680Y002780D01*
X000680Y003580D01*
X000780Y003680D01*
X001580Y003680D01*
X001680Y003580D01*
X001780Y003680D01*
X002580Y003680D01*
X002680Y003580D01*
X002780Y003680D01*
X003580Y003680D01*
X003680Y003580D01*
X003680Y002780D01*
X003280Y004180D02*
X003180Y004280D01*
X003180Y005080D01*
X003280Y005180D01*
X004080Y005180D01*
X004180Y005080D01*
X004280Y005180D01*
X005080Y005180D01*
X005180Y005080D01*
X005180Y004280D01*
X005080Y004180D01*
X004280Y004180D01*
X004180Y004280D01*
X004080Y004180D01*
X003280Y004180D01*
X002080Y010180D02*
X001280Y010180D01*
X001180Y010280D01*
X001180Y011080D01*
X001280Y011180D01*
X001180Y011280D01*
X001180Y012080D01*
X001280Y012180D01*
X001180Y012280D01*
X001180Y013080D01*
X001280Y013180D01*
X002080Y013180D01*
X002180Y013080D01*
X002180Y012280D01*
X002080Y012180D01*
X002180Y012080D01*
X002180Y011280D01*
X002080Y011180D01*
X002180Y011080D01*
X002180Y010280D01*
X002080Y010180D01*
X003080Y011680D02*
X003082Y011727D01*
X003088Y011775D01*
X003097Y011821D01*
X003110Y011867D01*
X003126Y011911D01*
X003147Y011955D01*
X003170Y011996D01*
X003196Y012035D01*
X003226Y012072D01*
X003259Y012107D01*
X003294Y012139D01*
X003331Y012168D01*
X004280Y011680D02*
X004278Y011635D01*
X004273Y011589D01*
X004265Y011545D01*
X004253Y011501D01*
X004237Y011458D01*
X004219Y011416D01*
X004197Y011376D01*
X004173Y011338D01*
X004146Y011302D01*
X004116Y011267D01*
X004083Y011236D01*
X004048Y011206D01*
X004280Y011680D02*
X004278Y011725D01*
X004273Y011771D01*
X004265Y011815D01*
X004253Y011859D01*
X004237Y011902D01*
X004219Y011944D01*
X004197Y011984D01*
X004173Y012022D01*
X004146Y012058D01*
X004116Y012093D01*
X004083Y012124D01*
X004048Y012154D01*
X003080Y011680D02*
X003082Y011634D01*
X003087Y011588D01*
X003096Y011542D01*
X003108Y011497D01*
X003124Y011454D01*
X003143Y011412D01*
X003166Y011371D01*
X003191Y011332D01*
X003219Y011296D01*
X003250Y011261D01*
X003284Y011229D01*
X003320Y011200D01*
X009880Y014180D02*
X010030Y014180D01*
X010030Y014330D01*
X010030Y014180D02*
X010180Y014180D01*
X010030Y014180D02*
X010030Y014030D01*
X009580Y013680D02*
X009582Y013746D01*
X009588Y013811D01*
X009598Y013876D01*
X009611Y013941D01*
X009629Y014004D01*
X009650Y014067D01*
X009675Y014127D01*
X009704Y014187D01*
X009736Y014244D01*
X009771Y014300D01*
X009810Y014353D01*
X009852Y014404D01*
X009896Y014452D01*
X009944Y014497D01*
X009994Y014540D01*
X010047Y014579D01*
X010102Y014616D01*
X010159Y014649D01*
X010218Y014678D01*
X010278Y014704D01*
X010340Y014726D01*
X010403Y014745D01*
X010467Y014759D01*
X010532Y014770D01*
X010598Y014777D01*
X010664Y014780D01*
X010729Y014779D01*
X010795Y014774D01*
X010860Y014765D01*
X010925Y014752D01*
X010988Y014736D01*
X011051Y014716D01*
X011112Y014691D01*
X011172Y014664D01*
X011230Y014633D01*
X011286Y014598D01*
X011340Y014560D01*
X011391Y014519D01*
X011440Y014475D01*
X011486Y014428D01*
X011530Y014379D01*
X011570Y014327D01*
X011607Y014272D01*
X011641Y014216D01*
X011671Y014157D01*
X011698Y014097D01*
X011721Y014036D01*
X011740Y013973D01*
X011756Y013909D01*
X011768Y013844D01*
X011776Y013779D01*
X011780Y013713D01*
X011780Y013647D01*
X011776Y013581D01*
X011768Y013516D01*
X011756Y013451D01*
X011740Y013387D01*
X011721Y013324D01*
X011698Y013263D01*
X011671Y013203D01*
X011641Y013144D01*
X011607Y013088D01*
X011570Y013033D01*
X011530Y012981D01*
X011486Y012932D01*
X011440Y012885D01*
X011391Y012841D01*
X011340Y012800D01*
X011286Y012762D01*
X011230Y012727D01*
X011172Y012696D01*
X011112Y012669D01*
X011051Y012644D01*
X010988Y012624D01*
X010925Y012608D01*
X010860Y012595D01*
X010795Y012586D01*
X010729Y012581D01*
X010664Y012580D01*
X010598Y012583D01*
X010532Y012590D01*
X010467Y012601D01*
X010403Y012615D01*
X010340Y012634D01*
X010278Y012656D01*
X010218Y012682D01*
X010159Y012711D01*
X010102Y012744D01*
X010047Y012781D01*
X009994Y012820D01*
X009944Y012863D01*
X009896Y012908D01*
X009852Y012956D01*
X009810Y013007D01*
X009771Y013060D01*
X009736Y013116D01*
X009704Y013173D01*
X009675Y013233D01*
X009650Y013293D01*
X009629Y013356D01*
X009611Y013419D01*
X009598Y013484D01*
X009588Y013549D01*
X009582Y013614D01*
X009580Y013680D01*
D13*
X007926Y013355D02*
X007626Y013355D01*
X007776Y013355D02*
X007776Y013805D01*
X007626Y013655D01*
X007466Y013730D02*
X007466Y013580D01*
X007391Y013505D01*
X007165Y013505D01*
X007165Y013355D02*
X007165Y013805D01*
X007391Y013805D01*
X007466Y013730D01*
X007005Y013805D02*
X006855Y013805D01*
X006930Y013805D02*
X006930Y013430D01*
X006855Y013355D01*
X006780Y013355D01*
X006705Y013430D01*
X006476Y012615D02*
X006476Y012165D01*
X006626Y012165D02*
X006325Y012165D01*
X006165Y012165D02*
X006015Y012315D01*
X006090Y012315D02*
X005865Y012315D01*
X005865Y012165D02*
X005865Y012615D01*
X006090Y012615D01*
X006165Y012540D01*
X006165Y012390D01*
X006090Y012315D01*
X006325Y012465D02*
X006476Y012615D01*
X005130Y011115D02*
X004980Y011115D01*
X004905Y011040D01*
X004744Y011040D02*
X004744Y010890D01*
X004669Y010815D01*
X004444Y010815D01*
X004444Y010665D02*
X004444Y011115D01*
X004669Y011115D01*
X004744Y011040D01*
X004594Y010815D02*
X004744Y010665D01*
X004905Y010665D02*
X005205Y010965D01*
X005205Y011040D01*
X005130Y011115D01*
X005205Y010665D02*
X004905Y010665D01*
X004810Y010195D02*
X004660Y010195D01*
X004585Y010120D01*
X004424Y010120D02*
X004424Y009970D01*
X004349Y009895D01*
X004124Y009895D01*
X004124Y009745D02*
X004124Y010195D01*
X004349Y010195D01*
X004424Y010120D01*
X004274Y009895D02*
X004424Y009745D01*
X004585Y009820D02*
X004660Y009745D01*
X004810Y009745D01*
X004885Y009820D01*
X004885Y009895D01*
X004810Y009970D01*
X004735Y009970D01*
X004810Y009970D02*
X004885Y010045D01*
X004885Y010120D01*
X004810Y010195D01*
X005030Y009505D02*
X005030Y007855D01*
X005090Y007615D02*
X004865Y007615D01*
X004865Y007165D01*
X004865Y007315D02*
X005090Y007315D01*
X005165Y007390D01*
X005165Y007540D01*
X005090Y007615D01*
X005325Y007615D02*
X005626Y007615D01*
X005626Y007540D01*
X005325Y007240D01*
X005325Y007165D01*
X005165Y007165D02*
X005015Y007315D01*
X005580Y007635D02*
X005580Y007793D01*
X005580Y008567D02*
X005580Y008793D01*
X005030Y009505D02*
X005078Y009540D01*
X005128Y009573D01*
X005180Y009604D01*
X005234Y009631D01*
X005289Y009655D01*
X005346Y009675D01*
X005403Y009693D01*
X005461Y009707D01*
X005520Y009718D01*
X005580Y009725D01*
X005580Y009567D01*
X005580Y009725D02*
X005642Y009729D01*
X005705Y009730D01*
X005767Y009726D01*
X005829Y009719D01*
X005890Y009709D01*
X005951Y009694D01*
X006011Y009676D01*
X006070Y009655D01*
X006127Y009630D01*
X006182Y009602D01*
X006236Y009571D01*
X006288Y009536D01*
X006338Y009498D01*
X006385Y009458D01*
X006430Y009414D01*
X006473Y009369D01*
X006512Y009320D01*
X006549Y009270D01*
X006582Y009217D01*
X006613Y009163D01*
X006640Y009106D01*
X006663Y009049D01*
X006683Y008990D01*
X006955Y009145D02*
X007405Y009145D01*
X007405Y008995D02*
X007405Y009295D01*
X007105Y008995D02*
X006955Y009145D01*
X006955Y008834D02*
X006955Y008534D01*
X006955Y008684D02*
X007405Y008684D01*
X008780Y010430D02*
X008782Y010454D01*
X008788Y010478D01*
X008797Y010500D01*
X008810Y010520D01*
X008826Y010538D01*
X008845Y010553D01*
X008866Y010566D01*
X008888Y010574D01*
X008912Y010579D01*
X008936Y010580D01*
X008960Y010577D01*
X008983Y010570D01*
X009005Y010560D01*
X009025Y010546D01*
X009042Y010529D01*
X009057Y010510D01*
X009068Y010489D01*
X009076Y010466D01*
X009080Y010442D01*
X009080Y010418D01*
X009076Y010394D01*
X009068Y010371D01*
X009057Y010350D01*
X009042Y010331D01*
X009025Y010314D01*
X009005Y010300D01*
X008983Y010290D01*
X008960Y010283D01*
X008936Y010280D01*
X008912Y010281D01*
X008888Y010286D01*
X008866Y010294D01*
X008845Y010307D01*
X008826Y010322D01*
X008810Y010340D01*
X008797Y010360D01*
X008788Y010382D01*
X008782Y010406D01*
X008780Y010430D01*
X006683Y008370D02*
X006663Y008310D01*
X006639Y008251D01*
X006611Y008194D01*
X006580Y008139D01*
X006545Y008085D01*
X006508Y008034D01*
X006467Y007985D01*
X006423Y007939D01*
X006377Y007895D01*
X006328Y007854D01*
X006277Y007816D01*
X006224Y007782D01*
X006168Y007750D01*
X006111Y007723D01*
X006052Y007698D01*
X005992Y007678D01*
X005931Y007660D01*
X005869Y007647D01*
X005806Y007638D01*
X005743Y007632D01*
X005679Y007630D01*
X005615Y007632D01*
X005552Y007638D01*
X005489Y007647D01*
X005427Y007661D01*
X005366Y007678D01*
X005306Y007699D01*
X005247Y007723D01*
X005190Y007751D01*
X005134Y007783D01*
X005081Y007818D01*
X005030Y007855D01*
X006745Y006551D02*
X006970Y006325D01*
X006970Y006626D01*
X007195Y006551D02*
X006745Y006551D01*
X006820Y006165D02*
X006970Y006165D01*
X007045Y006090D01*
X007045Y005865D01*
X007195Y005865D02*
X006745Y005865D01*
X006745Y006090D01*
X006820Y006165D01*
X007045Y006015D02*
X007195Y006165D01*
X005680Y005680D02*
X001680Y005680D01*
X001680Y003680D01*
X005680Y003680D01*
X005680Y005680D01*
X005026Y003305D02*
X004726Y003305D01*
X004726Y003080D01*
X004876Y003155D01*
X004951Y003155D01*
X005026Y003080D01*
X005026Y002930D01*
X004951Y002855D01*
X004801Y002855D01*
X004726Y002930D01*
X004855Y002805D02*
X005005Y002805D01*
X004930Y002805D02*
X004930Y002430D01*
X004855Y002355D01*
X004780Y002355D01*
X004705Y002430D01*
X005165Y002355D02*
X005165Y002805D01*
X005391Y002805D01*
X005466Y002730D01*
X005466Y002580D01*
X005391Y002505D01*
X005165Y002505D01*
X005626Y002580D02*
X005926Y002580D01*
X005851Y002355D02*
X005851Y002805D01*
X005626Y002580D01*
X006745Y002626D02*
X006820Y002476D01*
X006970Y002325D01*
X006970Y002551D01*
X007045Y002626D01*
X007120Y002626D01*
X007195Y002551D01*
X007195Y002400D01*
X007120Y002325D01*
X006970Y002325D01*
X006970Y002165D02*
X006820Y002165D01*
X006745Y002090D01*
X006745Y001865D01*
X007195Y001865D01*
X007045Y001865D02*
X007045Y002090D01*
X006970Y002165D01*
X007045Y002015D02*
X007195Y002165D01*
X004566Y003080D02*
X004491Y003005D01*
X004265Y003005D01*
X004265Y002855D02*
X004265Y003305D01*
X004491Y003305D01*
X004566Y003230D01*
X004566Y003080D01*
X004105Y003305D02*
X003955Y003305D01*
X004030Y003305D02*
X004030Y002930D01*
X003955Y002855D01*
X003880Y002855D01*
X003805Y002930D01*
X003375Y002495D02*
X003432Y002439D01*
X003432Y002382D01*
X003375Y002325D01*
X003432Y002268D01*
X003432Y002212D01*
X003375Y002155D01*
X003262Y002155D01*
X003205Y002212D01*
X003318Y002325D02*
X003375Y002325D01*
X003375Y002495D02*
X003262Y002495D01*
X003205Y002439D01*
X002432Y002439D02*
X002375Y002495D01*
X002262Y002495D01*
X002205Y002439D01*
X002432Y002439D02*
X002432Y002382D01*
X002205Y002155D01*
X002432Y002155D01*
X001432Y002155D02*
X001205Y002155D01*
X001318Y002155D02*
X001318Y002495D01*
X001205Y002382D01*
X001780Y004355D02*
X001855Y004355D01*
X001930Y004430D01*
X001930Y004805D01*
X001855Y004805D02*
X002005Y004805D01*
X002165Y004805D02*
X002391Y004805D01*
X002466Y004730D01*
X002466Y004580D01*
X002391Y004505D01*
X002165Y004505D01*
X002165Y004355D02*
X002165Y004805D01*
X002626Y004730D02*
X002701Y004805D01*
X002851Y004805D01*
X002926Y004730D01*
X002926Y004655D01*
X002851Y004580D01*
X002926Y004505D01*
X002926Y004430D01*
X002851Y004355D01*
X002701Y004355D01*
X002626Y004430D01*
X002776Y004580D02*
X002851Y004580D01*
X001780Y004355D02*
X001705Y004430D01*
X000938Y010346D02*
X000995Y010403D01*
X000995Y010516D01*
X000938Y010573D01*
X000882Y010573D01*
X000825Y010516D01*
X000825Y010459D01*
X000825Y010516D02*
X000768Y010573D01*
X000711Y010573D01*
X000655Y010516D01*
X000655Y010403D01*
X000711Y010346D01*
X000711Y011346D02*
X000655Y011403D01*
X000655Y011516D01*
X000711Y011573D01*
X000768Y011573D01*
X000995Y011346D01*
X000995Y011573D01*
X000995Y012346D02*
X000995Y012573D01*
X000995Y012459D02*
X000655Y012459D01*
X000768Y012346D01*
X002355Y012409D02*
X002355Y012184D01*
X002805Y012184D01*
X002655Y012184D02*
X002655Y012409D01*
X002580Y012484D01*
X002430Y012484D01*
X002355Y012409D01*
X002580Y012645D02*
X002580Y012870D01*
X002655Y012945D01*
X002730Y012945D01*
X002805Y012870D01*
X002805Y012720D01*
X002730Y012645D01*
X002580Y012645D01*
X002430Y012795D01*
X002355Y012945D01*
X002355Y012024D02*
X002355Y011874D01*
X002355Y011949D02*
X002730Y011949D01*
X002805Y011874D01*
X002805Y011799D01*
X002730Y011724D01*
X011755Y014380D02*
X011830Y014305D01*
X011980Y014305D01*
X012055Y014380D01*
X012215Y014305D02*
X012516Y014305D01*
X012366Y014305D02*
X012366Y014755D01*
X012215Y014605D01*
X012055Y014680D02*
X011980Y014755D01*
X011830Y014755D01*
X011755Y014680D01*
X011755Y014380D01*
X014255Y012680D02*
X014255Y012380D01*
X014330Y012305D01*
X014480Y012305D01*
X014555Y012380D01*
X014715Y012305D02*
X015016Y012605D01*
X015016Y012680D01*
X014941Y012755D01*
X014790Y012755D01*
X014715Y012680D01*
X014555Y012680D02*
X014480Y012755D01*
X014330Y012755D01*
X014255Y012680D01*
X014715Y012305D02*
X015016Y012305D01*
X012505Y011223D02*
X012505Y010922D01*
X012505Y011072D02*
X012055Y011072D01*
X012205Y010922D01*
X012130Y010762D02*
X012055Y010687D01*
X012055Y010537D01*
X012130Y010462D01*
X012430Y010462D01*
X012505Y010537D01*
X012505Y010687D01*
X012430Y010762D01*
X012505Y010305D02*
X012505Y010155D01*
X012505Y010230D02*
X012055Y010230D01*
X012055Y010155D02*
X012055Y010305D01*
X014430Y007045D02*
X014355Y006970D01*
X014355Y006820D01*
X014430Y006745D01*
X014430Y006584D02*
X014580Y006584D01*
X014655Y006509D01*
X014655Y006284D01*
X014805Y006284D02*
X014355Y006284D01*
X014355Y006509D01*
X014430Y006584D01*
X014805Y006745D02*
X014505Y007045D01*
X014430Y007045D01*
X014805Y007045D02*
X014805Y006745D01*
X014730Y006049D02*
X014355Y006049D01*
X014355Y005974D02*
X014355Y006124D01*
X014730Y006049D02*
X014805Y005974D01*
X014805Y005899D01*
X014730Y005824D01*
X012195Y005551D02*
X012195Y005400D01*
X012120Y005325D01*
X011970Y005325D02*
X011895Y005476D01*
X011895Y005551D01*
X011970Y005626D01*
X012120Y005626D01*
X012195Y005551D01*
X011970Y005325D02*
X011745Y005325D01*
X011745Y005626D01*
X011820Y005165D02*
X011970Y005165D01*
X012045Y005090D01*
X012045Y004865D01*
X012195Y004865D02*
X011745Y004865D01*
X011745Y005090D01*
X011820Y005165D01*
X012045Y005015D02*
X012195Y005165D01*
X013480Y003045D02*
X013405Y002970D01*
X013405Y002820D01*
X013480Y002745D01*
X013480Y002584D02*
X013405Y002509D01*
X013405Y002359D01*
X013480Y002284D01*
X013780Y002284D01*
X013855Y002359D01*
X013855Y002509D01*
X013780Y002584D01*
X013780Y002745D02*
X013855Y002820D01*
X013855Y002970D01*
X013780Y003045D01*
X013705Y003045D01*
X013630Y002970D01*
X013630Y002895D01*
X013630Y002970D02*
X013555Y003045D01*
X013480Y003045D01*
D14*
X010330Y011680D03*
D15*
X010705Y011680D03*
X008655Y011680D03*
D16*
X012330Y002880D02*
X012680Y002880D01*
X013030Y002880D01*
X013030Y002480D02*
X012680Y002480D01*
X012330Y002480D01*
D17*
X012180Y006630D02*
X012180Y006730D01*
X007180Y007630D02*
X007180Y007730D01*
X005730Y006680D02*
X005630Y006680D01*
X007180Y003730D02*
X007180Y003630D01*
X006230Y010180D02*
X006130Y010180D01*
X006630Y011180D02*
X006730Y011180D01*
X007630Y012680D02*
X007730Y012680D01*
D18*
X000180Y008180D02*
X000182Y008269D01*
X000188Y008358D01*
X000198Y008447D01*
X000212Y008535D01*
X000229Y008622D01*
X000251Y008708D01*
X000277Y008794D01*
X000306Y008878D01*
X000339Y008961D01*
X000375Y009042D01*
X000416Y009122D01*
X000459Y009199D01*
X000506Y009275D01*
X000557Y009348D01*
X000610Y009419D01*
X000667Y009488D01*
X000727Y009554D01*
X000790Y009618D01*
X000855Y009678D01*
X000923Y009736D01*
X000994Y009790D01*
X001067Y009841D01*
X001142Y009889D01*
X001219Y009934D01*
X001298Y009975D01*
X001379Y010012D01*
X001461Y010046D01*
X001545Y010077D01*
X001630Y010103D01*
X001716Y010126D01*
X001803Y010144D01*
X001891Y010159D01*
X001980Y010170D01*
X002069Y010177D01*
X002158Y010180D01*
X002247Y010179D01*
X002336Y010174D01*
X002424Y010165D01*
X002513Y010152D01*
X002600Y010135D01*
X002687Y010115D01*
X002773Y010090D01*
X002857Y010062D01*
X002940Y010030D01*
X003022Y009994D01*
X003102Y009955D01*
X003180Y009912D01*
X003256Y009866D01*
X003330Y009816D01*
X003402Y009763D01*
X003471Y009707D01*
X003538Y009648D01*
X003602Y009586D01*
X003663Y009522D01*
X003722Y009454D01*
X003777Y009384D01*
X003829Y009312D01*
X003878Y009237D01*
X003923Y009161D01*
X003965Y009082D01*
X004003Y009002D01*
X004038Y008920D01*
X004069Y008836D01*
X004097Y008751D01*
X004120Y008665D01*
X004140Y008578D01*
X004156Y008491D01*
X004168Y008402D01*
X004176Y008314D01*
X004180Y008225D01*
X004180Y008135D01*
X004176Y008046D01*
X004168Y007958D01*
X004156Y007869D01*
X004140Y007782D01*
X004120Y007695D01*
X004097Y007609D01*
X004069Y007524D01*
X004038Y007440D01*
X004003Y007358D01*
X003965Y007278D01*
X003923Y007199D01*
X003878Y007123D01*
X003829Y007048D01*
X003777Y006976D01*
X003722Y006906D01*
X003663Y006838D01*
X003602Y006774D01*
X003538Y006712D01*
X003471Y006653D01*
X003402Y006597D01*
X003330Y006544D01*
X003256Y006494D01*
X003180Y006448D01*
X003102Y006405D01*
X003022Y006366D01*
X002940Y006330D01*
X002857Y006298D01*
X002773Y006270D01*
X002687Y006245D01*
X002600Y006225D01*
X002513Y006208D01*
X002424Y006195D01*
X002336Y006186D01*
X002247Y006181D01*
X002158Y006180D01*
X002069Y006183D01*
X001980Y006190D01*
X001891Y006201D01*
X001803Y006216D01*
X001716Y006234D01*
X001630Y006257D01*
X001545Y006283D01*
X001461Y006314D01*
X001379Y006348D01*
X001298Y006385D01*
X001219Y006426D01*
X001142Y006471D01*
X001067Y006519D01*
X000994Y006570D01*
X000923Y006624D01*
X000855Y006682D01*
X000790Y006742D01*
X000727Y006806D01*
X000667Y006872D01*
X000610Y006941D01*
X000557Y007012D01*
X000506Y007085D01*
X000459Y007161D01*
X000416Y007238D01*
X000375Y007318D01*
X000339Y007399D01*
X000306Y007482D01*
X000277Y007566D01*
X000251Y007652D01*
X000229Y007738D01*
X000212Y007825D01*
X000198Y007913D01*
X000188Y008002D01*
X000182Y008091D01*
X000180Y008180D01*
X013402Y004652D02*
X013402Y003708D01*
X013402Y003698D02*
X013435Y003650D01*
X013470Y003604D01*
X013509Y003560D01*
X013550Y003519D01*
X013593Y003480D01*
X013639Y003445D01*
X013687Y003412D01*
X013737Y003383D01*
X013789Y003356D01*
X013842Y003333D01*
X013897Y003314D01*
X013953Y003298D01*
X014009Y003285D01*
X014067Y003277D01*
X014125Y003271D01*
X014183Y003270D01*
X014241Y003272D01*
X014299Y003278D01*
X014356Y003288D01*
X014412Y003301D01*
X014468Y003318D01*
X014522Y003338D01*
X014576Y003361D01*
X014627Y003388D01*
X014677Y003418D01*
X014724Y003452D01*
X014770Y003488D01*
X014813Y003527D01*
X014853Y003569D01*
X014891Y003613D01*
X014926Y003659D01*
X014958Y003708D01*
X014958Y004652D01*
X014958Y004662D02*
X014925Y004710D01*
X014890Y004756D01*
X014851Y004800D01*
X014810Y004841D01*
X014767Y004880D01*
X014721Y004915D01*
X014673Y004948D01*
X014623Y004977D01*
X014571Y005004D01*
X014518Y005027D01*
X014463Y005046D01*
X014407Y005062D01*
X014351Y005075D01*
X014293Y005083D01*
X014235Y005089D01*
X014177Y005090D01*
X014119Y005088D01*
X014061Y005082D01*
X014004Y005072D01*
X013948Y005059D01*
X013892Y005042D01*
X013838Y005022D01*
X013784Y004999D01*
X013733Y004972D01*
X013683Y004942D01*
X013636Y004908D01*
X013590Y004872D01*
X013547Y004833D01*
X013507Y004791D01*
X013469Y004747D01*
X013434Y004701D01*
X013402Y004652D01*
D19*
X004077Y010985D02*
X004125Y011015D01*
X004170Y011048D01*
X004213Y011084D01*
X004254Y011122D01*
X004291Y011164D01*
X004326Y011208D01*
X004357Y011254D01*
X004386Y011303D01*
X004410Y011353D01*
X004431Y011405D01*
X004449Y011459D01*
X004462Y011513D01*
X004472Y011568D01*
X004478Y011624D01*
X004480Y011680D01*
X003304Y010974D02*
X003257Y011001D01*
X003212Y011031D01*
X003169Y011064D01*
X003129Y011100D01*
X003091Y011139D01*
X003056Y011180D01*
X003023Y011223D01*
X002994Y011268D01*
X002968Y011316D01*
X002945Y011365D01*
X002925Y011415D01*
X002909Y011466D01*
X002896Y011519D01*
X002887Y011572D01*
X002882Y011626D01*
X002880Y011680D01*
X004197Y012291D02*
X004236Y012255D01*
X004274Y012216D01*
X004308Y012176D01*
X004340Y012133D01*
X004368Y012088D01*
X004394Y012041D01*
X004417Y011992D01*
X004436Y011942D01*
X004452Y011891D01*
X004464Y011839D01*
X004473Y011787D01*
X004478Y011733D01*
X004480Y011680D01*
X003168Y012295D02*
X003128Y012259D01*
X003090Y012220D01*
X003055Y012179D01*
X003023Y012136D01*
X002993Y012091D01*
X002967Y012044D01*
X002945Y011995D01*
X002925Y011944D01*
X002909Y011893D01*
X002896Y011841D01*
X002887Y011787D01*
X002882Y011734D01*
X002880Y011680D01*
M02*
