G75*
%MOIN*%
%OFA0B0*%
%FSLAX24Y24*%
%IPPOS*%
%LPD*%
%AMOC8*
5,1,8,0,0,1.08239X$1,22.5*
%
%ADD10C,0.0000*%
%ADD11R,0.0500X0.0250*%
%ADD12R,0.0760X0.1500*%
D10*
X000180Y000180D02*
X000180Y015176D01*
X015050Y015176D01*
X015050Y000180D01*
X000180Y000180D01*
X000550Y001180D02*
X000552Y001230D01*
X000558Y001280D01*
X000568Y001329D01*
X000582Y001377D01*
X000599Y001424D01*
X000620Y001469D01*
X000645Y001513D01*
X000673Y001554D01*
X000705Y001593D01*
X000739Y001630D01*
X000776Y001664D01*
X000816Y001694D01*
X000858Y001721D01*
X000902Y001745D01*
X000948Y001766D01*
X000995Y001782D01*
X001043Y001795D01*
X001093Y001804D01*
X001142Y001809D01*
X001193Y001810D01*
X001243Y001807D01*
X001292Y001800D01*
X001341Y001789D01*
X001389Y001774D01*
X001435Y001756D01*
X001480Y001734D01*
X001523Y001708D01*
X001564Y001679D01*
X001603Y001647D01*
X001639Y001612D01*
X001671Y001574D01*
X001701Y001534D01*
X001728Y001491D01*
X001751Y001447D01*
X001770Y001401D01*
X001786Y001353D01*
X001798Y001304D01*
X001806Y001255D01*
X001810Y001205D01*
X001810Y001155D01*
X001806Y001105D01*
X001798Y001056D01*
X001786Y001007D01*
X001770Y000959D01*
X001751Y000913D01*
X001728Y000869D01*
X001701Y000826D01*
X001671Y000786D01*
X001639Y000748D01*
X001603Y000713D01*
X001564Y000681D01*
X001523Y000652D01*
X001480Y000626D01*
X001435Y000604D01*
X001389Y000586D01*
X001341Y000571D01*
X001292Y000560D01*
X001243Y000553D01*
X001193Y000550D01*
X001142Y000551D01*
X001093Y000556D01*
X001043Y000565D01*
X000995Y000578D01*
X000948Y000594D01*
X000902Y000615D01*
X000858Y000639D01*
X000816Y000666D01*
X000776Y000696D01*
X000739Y000730D01*
X000705Y000767D01*
X000673Y000806D01*
X000645Y000847D01*
X000620Y000891D01*
X000599Y000936D01*
X000582Y000983D01*
X000568Y001031D01*
X000558Y001080D01*
X000552Y001130D01*
X000550Y001180D01*
X000550Y014180D02*
X000552Y014230D01*
X000558Y014280D01*
X000568Y014329D01*
X000582Y014377D01*
X000599Y014424D01*
X000620Y014469D01*
X000645Y014513D01*
X000673Y014554D01*
X000705Y014593D01*
X000739Y014630D01*
X000776Y014664D01*
X000816Y014694D01*
X000858Y014721D01*
X000902Y014745D01*
X000948Y014766D01*
X000995Y014782D01*
X001043Y014795D01*
X001093Y014804D01*
X001142Y014809D01*
X001193Y014810D01*
X001243Y014807D01*
X001292Y014800D01*
X001341Y014789D01*
X001389Y014774D01*
X001435Y014756D01*
X001480Y014734D01*
X001523Y014708D01*
X001564Y014679D01*
X001603Y014647D01*
X001639Y014612D01*
X001671Y014574D01*
X001701Y014534D01*
X001728Y014491D01*
X001751Y014447D01*
X001770Y014401D01*
X001786Y014353D01*
X001798Y014304D01*
X001806Y014255D01*
X001810Y014205D01*
X001810Y014155D01*
X001806Y014105D01*
X001798Y014056D01*
X001786Y014007D01*
X001770Y013959D01*
X001751Y013913D01*
X001728Y013869D01*
X001701Y013826D01*
X001671Y013786D01*
X001639Y013748D01*
X001603Y013713D01*
X001564Y013681D01*
X001523Y013652D01*
X001480Y013626D01*
X001435Y013604D01*
X001389Y013586D01*
X001341Y013571D01*
X001292Y013560D01*
X001243Y013553D01*
X001193Y013550D01*
X001142Y013551D01*
X001093Y013556D01*
X001043Y013565D01*
X000995Y013578D01*
X000948Y013594D01*
X000902Y013615D01*
X000858Y013639D01*
X000816Y013666D01*
X000776Y013696D01*
X000739Y013730D01*
X000705Y013767D01*
X000673Y013806D01*
X000645Y013847D01*
X000620Y013891D01*
X000599Y013936D01*
X000582Y013983D01*
X000568Y014031D01*
X000558Y014080D01*
X000552Y014130D01*
X000550Y014180D01*
X013550Y014180D02*
X013552Y014230D01*
X013558Y014280D01*
X013568Y014329D01*
X013582Y014377D01*
X013599Y014424D01*
X013620Y014469D01*
X013645Y014513D01*
X013673Y014554D01*
X013705Y014593D01*
X013739Y014630D01*
X013776Y014664D01*
X013816Y014694D01*
X013858Y014721D01*
X013902Y014745D01*
X013948Y014766D01*
X013995Y014782D01*
X014043Y014795D01*
X014093Y014804D01*
X014142Y014809D01*
X014193Y014810D01*
X014243Y014807D01*
X014292Y014800D01*
X014341Y014789D01*
X014389Y014774D01*
X014435Y014756D01*
X014480Y014734D01*
X014523Y014708D01*
X014564Y014679D01*
X014603Y014647D01*
X014639Y014612D01*
X014671Y014574D01*
X014701Y014534D01*
X014728Y014491D01*
X014751Y014447D01*
X014770Y014401D01*
X014786Y014353D01*
X014798Y014304D01*
X014806Y014255D01*
X014810Y014205D01*
X014810Y014155D01*
X014806Y014105D01*
X014798Y014056D01*
X014786Y014007D01*
X014770Y013959D01*
X014751Y013913D01*
X014728Y013869D01*
X014701Y013826D01*
X014671Y013786D01*
X014639Y013748D01*
X014603Y013713D01*
X014564Y013681D01*
X014523Y013652D01*
X014480Y013626D01*
X014435Y013604D01*
X014389Y013586D01*
X014341Y013571D01*
X014292Y013560D01*
X014243Y013553D01*
X014193Y013550D01*
X014142Y013551D01*
X014093Y013556D01*
X014043Y013565D01*
X013995Y013578D01*
X013948Y013594D01*
X013902Y013615D01*
X013858Y013639D01*
X013816Y013666D01*
X013776Y013696D01*
X013739Y013730D01*
X013705Y013767D01*
X013673Y013806D01*
X013645Y013847D01*
X013620Y013891D01*
X013599Y013936D01*
X013582Y013983D01*
X013568Y014031D01*
X013558Y014080D01*
X013552Y014130D01*
X013550Y014180D01*
X013550Y001180D02*
X013552Y001230D01*
X013558Y001280D01*
X013568Y001329D01*
X013582Y001377D01*
X013599Y001424D01*
X013620Y001469D01*
X013645Y001513D01*
X013673Y001554D01*
X013705Y001593D01*
X013739Y001630D01*
X013776Y001664D01*
X013816Y001694D01*
X013858Y001721D01*
X013902Y001745D01*
X013948Y001766D01*
X013995Y001782D01*
X014043Y001795D01*
X014093Y001804D01*
X014142Y001809D01*
X014193Y001810D01*
X014243Y001807D01*
X014292Y001800D01*
X014341Y001789D01*
X014389Y001774D01*
X014435Y001756D01*
X014480Y001734D01*
X014523Y001708D01*
X014564Y001679D01*
X014603Y001647D01*
X014639Y001612D01*
X014671Y001574D01*
X014701Y001534D01*
X014728Y001491D01*
X014751Y001447D01*
X014770Y001401D01*
X014786Y001353D01*
X014798Y001304D01*
X014806Y001255D01*
X014810Y001205D01*
X014810Y001155D01*
X014806Y001105D01*
X014798Y001056D01*
X014786Y001007D01*
X014770Y000959D01*
X014751Y000913D01*
X014728Y000869D01*
X014701Y000826D01*
X014671Y000786D01*
X014639Y000748D01*
X014603Y000713D01*
X014564Y000681D01*
X014523Y000652D01*
X014480Y000626D01*
X014435Y000604D01*
X014389Y000586D01*
X014341Y000571D01*
X014292Y000560D01*
X014243Y000553D01*
X014193Y000550D01*
X014142Y000551D01*
X014093Y000556D01*
X014043Y000565D01*
X013995Y000578D01*
X013948Y000594D01*
X013902Y000615D01*
X013858Y000639D01*
X013816Y000666D01*
X013776Y000696D01*
X013739Y000730D01*
X013705Y000767D01*
X013673Y000806D01*
X013645Y000847D01*
X013620Y000891D01*
X013599Y000936D01*
X013582Y000983D01*
X013568Y001031D01*
X013558Y001080D01*
X013552Y001130D01*
X013550Y001180D01*
D11*
X001180Y004180D03*
X001180Y004680D03*
X001180Y005180D03*
D12*
X006180Y004680D03*
M02*
