%
M48
M72
T01C0.0120
T02C0.0315
T03C0.0320
T04C0.0360
T05C0.1260
%
T01
X2680Y1680
X3180Y5180
X6180Y3180
X5180Y11680
T02
X1332Y9028
X1332Y7332
X3028Y9028
X14180Y3680
X14180Y4680
T03
X3680Y12180
X3680Y11180
X5680Y10180
X6180Y11180
X7180Y11180
X6680Y10180
X5680Y9180
X6430Y8680
X5680Y8180
X7180Y8180
X7180Y7180
X6180Y6680
X5180Y6680
X7180Y4180
X7180Y3180
X8180Y3182
X8180Y2182
X8180Y1182
X11180Y1182
X11180Y2182
X11180Y3182
X11180Y4182
X11180Y5182
X11180Y6182
X11180Y7182
X11180Y8182
X11180Y9182
X11180Y10182
X12430Y9180
X13180Y8680
X13180Y9680
X12680Y11680
X13680Y11680
X11180Y11680
X11180Y13680
X10180Y13680
X8180Y12680
X8180Y11680
X7180Y12680
X8180Y10182
X8180Y9182
X8180Y8182
X8180Y7182
X8180Y6182
X8180Y5182
X8180Y4182
X12180Y6180
X12180Y7180
T04
X1680Y12680
X1680Y11680
X1680Y10680
X4680Y13680
X5680Y13680
X13680Y7180
X13680Y6180
X12680Y4180
X12680Y1180
X5680Y1680
X4680Y1680
X3180Y3180
X2180Y3180
X1180Y3180
X3680Y4680
X4680Y4680
T05
X1180Y14180
X1180Y1180
X14180Y1180
X14180Y14180
M30
