G75*
%MOIN*%
%OFA0B0*%
%FSLAX24Y24*%
%IPPOS*%
%LPD*%
%AMOC8*
5,1,8,0,0,1.08239X$1,22.5*
%
%ADD10C,0.0000*%
%ADD11C,0.0480*%
%ADD12OC8,0.0500*%
%ADD13OC8,0.0480*%
%ADD14C,0.0540*%
%ADD15OC8,0.0750*%
%ADD16OC8,0.0630*%
%ADD17C,0.0630*%
%ADD18C,0.0551*%
%ADD19C,0.0700*%
%ADD20R,0.0500X0.0250*%
%ADD21R,0.0760X0.1500*%
%ADD22C,0.0060*%
%ADD23C,0.0200*%
%ADD24C,0.0240*%
D10*
X000180Y000180D02*
X000180Y015176D01*
X015050Y015176D01*
X015050Y000180D01*
X000180Y000180D01*
X000550Y001180D02*
X000552Y001230D01*
X000558Y001280D01*
X000568Y001329D01*
X000582Y001377D01*
X000599Y001424D01*
X000620Y001469D01*
X000645Y001513D01*
X000673Y001554D01*
X000705Y001593D01*
X000739Y001630D01*
X000776Y001664D01*
X000816Y001694D01*
X000858Y001721D01*
X000902Y001745D01*
X000948Y001766D01*
X000995Y001782D01*
X001043Y001795D01*
X001093Y001804D01*
X001142Y001809D01*
X001193Y001810D01*
X001243Y001807D01*
X001292Y001800D01*
X001341Y001789D01*
X001389Y001774D01*
X001435Y001756D01*
X001480Y001734D01*
X001523Y001708D01*
X001564Y001679D01*
X001603Y001647D01*
X001639Y001612D01*
X001671Y001574D01*
X001701Y001534D01*
X001728Y001491D01*
X001751Y001447D01*
X001770Y001401D01*
X001786Y001353D01*
X001798Y001304D01*
X001806Y001255D01*
X001810Y001205D01*
X001810Y001155D01*
X001806Y001105D01*
X001798Y001056D01*
X001786Y001007D01*
X001770Y000959D01*
X001751Y000913D01*
X001728Y000869D01*
X001701Y000826D01*
X001671Y000786D01*
X001639Y000748D01*
X001603Y000713D01*
X001564Y000681D01*
X001523Y000652D01*
X001480Y000626D01*
X001435Y000604D01*
X001389Y000586D01*
X001341Y000571D01*
X001292Y000560D01*
X001243Y000553D01*
X001193Y000550D01*
X001142Y000551D01*
X001093Y000556D01*
X001043Y000565D01*
X000995Y000578D01*
X000948Y000594D01*
X000902Y000615D01*
X000858Y000639D01*
X000816Y000666D01*
X000776Y000696D01*
X000739Y000730D01*
X000705Y000767D01*
X000673Y000806D01*
X000645Y000847D01*
X000620Y000891D01*
X000599Y000936D01*
X000582Y000983D01*
X000568Y001031D01*
X000558Y001080D01*
X000552Y001130D01*
X000550Y001180D01*
X000550Y014180D02*
X000552Y014230D01*
X000558Y014280D01*
X000568Y014329D01*
X000582Y014377D01*
X000599Y014424D01*
X000620Y014469D01*
X000645Y014513D01*
X000673Y014554D01*
X000705Y014593D01*
X000739Y014630D01*
X000776Y014664D01*
X000816Y014694D01*
X000858Y014721D01*
X000902Y014745D01*
X000948Y014766D01*
X000995Y014782D01*
X001043Y014795D01*
X001093Y014804D01*
X001142Y014809D01*
X001193Y014810D01*
X001243Y014807D01*
X001292Y014800D01*
X001341Y014789D01*
X001389Y014774D01*
X001435Y014756D01*
X001480Y014734D01*
X001523Y014708D01*
X001564Y014679D01*
X001603Y014647D01*
X001639Y014612D01*
X001671Y014574D01*
X001701Y014534D01*
X001728Y014491D01*
X001751Y014447D01*
X001770Y014401D01*
X001786Y014353D01*
X001798Y014304D01*
X001806Y014255D01*
X001810Y014205D01*
X001810Y014155D01*
X001806Y014105D01*
X001798Y014056D01*
X001786Y014007D01*
X001770Y013959D01*
X001751Y013913D01*
X001728Y013869D01*
X001701Y013826D01*
X001671Y013786D01*
X001639Y013748D01*
X001603Y013713D01*
X001564Y013681D01*
X001523Y013652D01*
X001480Y013626D01*
X001435Y013604D01*
X001389Y013586D01*
X001341Y013571D01*
X001292Y013560D01*
X001243Y013553D01*
X001193Y013550D01*
X001142Y013551D01*
X001093Y013556D01*
X001043Y013565D01*
X000995Y013578D01*
X000948Y013594D01*
X000902Y013615D01*
X000858Y013639D01*
X000816Y013666D01*
X000776Y013696D01*
X000739Y013730D01*
X000705Y013767D01*
X000673Y013806D01*
X000645Y013847D01*
X000620Y013891D01*
X000599Y013936D01*
X000582Y013983D01*
X000568Y014031D01*
X000558Y014080D01*
X000552Y014130D01*
X000550Y014180D01*
X013550Y014180D02*
X013552Y014230D01*
X013558Y014280D01*
X013568Y014329D01*
X013582Y014377D01*
X013599Y014424D01*
X013620Y014469D01*
X013645Y014513D01*
X013673Y014554D01*
X013705Y014593D01*
X013739Y014630D01*
X013776Y014664D01*
X013816Y014694D01*
X013858Y014721D01*
X013902Y014745D01*
X013948Y014766D01*
X013995Y014782D01*
X014043Y014795D01*
X014093Y014804D01*
X014142Y014809D01*
X014193Y014810D01*
X014243Y014807D01*
X014292Y014800D01*
X014341Y014789D01*
X014389Y014774D01*
X014435Y014756D01*
X014480Y014734D01*
X014523Y014708D01*
X014564Y014679D01*
X014603Y014647D01*
X014639Y014612D01*
X014671Y014574D01*
X014701Y014534D01*
X014728Y014491D01*
X014751Y014447D01*
X014770Y014401D01*
X014786Y014353D01*
X014798Y014304D01*
X014806Y014255D01*
X014810Y014205D01*
X014810Y014155D01*
X014806Y014105D01*
X014798Y014056D01*
X014786Y014007D01*
X014770Y013959D01*
X014751Y013913D01*
X014728Y013869D01*
X014701Y013826D01*
X014671Y013786D01*
X014639Y013748D01*
X014603Y013713D01*
X014564Y013681D01*
X014523Y013652D01*
X014480Y013626D01*
X014435Y013604D01*
X014389Y013586D01*
X014341Y013571D01*
X014292Y013560D01*
X014243Y013553D01*
X014193Y013550D01*
X014142Y013551D01*
X014093Y013556D01*
X014043Y013565D01*
X013995Y013578D01*
X013948Y013594D01*
X013902Y013615D01*
X013858Y013639D01*
X013816Y013666D01*
X013776Y013696D01*
X013739Y013730D01*
X013705Y013767D01*
X013673Y013806D01*
X013645Y013847D01*
X013620Y013891D01*
X013599Y013936D01*
X013582Y013983D01*
X013568Y014031D01*
X013558Y014080D01*
X013552Y014130D01*
X013550Y014180D01*
X013550Y001180D02*
X013552Y001230D01*
X013558Y001280D01*
X013568Y001329D01*
X013582Y001377D01*
X013599Y001424D01*
X013620Y001469D01*
X013645Y001513D01*
X013673Y001554D01*
X013705Y001593D01*
X013739Y001630D01*
X013776Y001664D01*
X013816Y001694D01*
X013858Y001721D01*
X013902Y001745D01*
X013948Y001766D01*
X013995Y001782D01*
X014043Y001795D01*
X014093Y001804D01*
X014142Y001809D01*
X014193Y001810D01*
X014243Y001807D01*
X014292Y001800D01*
X014341Y001789D01*
X014389Y001774D01*
X014435Y001756D01*
X014480Y001734D01*
X014523Y001708D01*
X014564Y001679D01*
X014603Y001647D01*
X014639Y001612D01*
X014671Y001574D01*
X014701Y001534D01*
X014728Y001491D01*
X014751Y001447D01*
X014770Y001401D01*
X014786Y001353D01*
X014798Y001304D01*
X014806Y001255D01*
X014810Y001205D01*
X014810Y001155D01*
X014806Y001105D01*
X014798Y001056D01*
X014786Y001007D01*
X014770Y000959D01*
X014751Y000913D01*
X014728Y000869D01*
X014701Y000826D01*
X014671Y000786D01*
X014639Y000748D01*
X014603Y000713D01*
X014564Y000681D01*
X014523Y000652D01*
X014480Y000626D01*
X014435Y000604D01*
X014389Y000586D01*
X014341Y000571D01*
X014292Y000560D01*
X014243Y000553D01*
X014193Y000550D01*
X014142Y000551D01*
X014093Y000556D01*
X014043Y000565D01*
X013995Y000578D01*
X013948Y000594D01*
X013902Y000615D01*
X013858Y000639D01*
X013816Y000666D01*
X013776Y000696D01*
X013739Y000730D01*
X013705Y000767D01*
X013673Y000806D01*
X013645Y000847D01*
X013620Y000891D01*
X013599Y000936D01*
X013582Y000983D01*
X013568Y001031D01*
X013558Y001080D01*
X013552Y001130D01*
X013550Y001180D01*
D11*
X011420Y001182D02*
X010940Y001182D01*
X010940Y002182D02*
X011420Y002182D01*
X011420Y003182D02*
X010940Y003182D01*
X010940Y004182D02*
X011420Y004182D01*
X011420Y005182D02*
X010940Y005182D01*
X010940Y006182D02*
X011420Y006182D01*
X011420Y007182D02*
X010940Y007182D01*
X010940Y008182D02*
X011420Y008182D01*
X011420Y009182D02*
X010940Y009182D01*
X010940Y010182D02*
X011420Y010182D01*
X011420Y011680D02*
X010940Y011680D01*
X008420Y011680D02*
X007940Y011680D01*
X007940Y010182D02*
X008420Y010182D01*
X008420Y009182D02*
X007940Y009182D01*
X007940Y008182D02*
X008420Y008182D01*
X008420Y007182D02*
X007940Y007182D01*
X007940Y006182D02*
X008420Y006182D01*
X008420Y005182D02*
X007940Y005182D01*
X007940Y004182D02*
X008420Y004182D01*
X008420Y003182D02*
X007940Y003182D01*
X007940Y002182D02*
X008420Y002182D01*
X008420Y001182D02*
X007940Y001182D01*
D12*
X013180Y008680D03*
X012430Y009180D03*
X013180Y009680D03*
D13*
X012180Y007180D03*
X012180Y006180D03*
X007180Y007180D03*
X006180Y006680D03*
X005180Y006680D03*
X005680Y008180D03*
X006430Y008680D03*
X007180Y008180D03*
X005680Y009180D03*
X005680Y010180D03*
X006180Y011180D03*
X007180Y011180D03*
X006680Y010180D03*
X007180Y012680D03*
X008180Y012680D03*
X003680Y012180D03*
X003680Y011180D03*
X007180Y004180D03*
X007180Y003180D03*
D14*
X005680Y001950D02*
X005680Y001410D01*
X004680Y001410D02*
X004680Y001950D01*
X003180Y002910D02*
X003180Y003450D01*
X002180Y003450D02*
X002180Y002910D01*
X001180Y002910D02*
X001180Y003450D01*
X003680Y004410D02*
X003680Y004950D01*
X004680Y004950D02*
X004680Y004410D01*
X001950Y010680D02*
X001410Y010680D01*
X001410Y011680D02*
X001950Y011680D01*
X001950Y012680D02*
X001410Y012680D01*
X004680Y013410D02*
X004680Y013950D01*
X005680Y013950D02*
X005680Y013410D01*
X013410Y007180D02*
X013950Y007180D01*
X013950Y006180D02*
X013410Y006180D01*
D15*
X012680Y004180D03*
X012680Y001180D03*
D16*
X013680Y011680D03*
X011180Y013680D03*
D17*
X010180Y013680D03*
X012680Y011680D03*
D18*
X014180Y004680D03*
X014180Y003680D03*
D19*
X003028Y009028D03*
X001332Y009028D03*
X001332Y007332D03*
D20*
X001180Y005180D03*
X001180Y004680D03*
X001180Y004180D03*
D21*
X006180Y004680D03*
D22*
X007180Y004680D02*
X007180Y005680D01*
X006680Y006180D01*
X006180Y006680D01*
X007180Y007180D02*
X008180Y007180D01*
X008180Y007182D01*
X008680Y007680D02*
X006180Y007680D01*
X006180Y008180D01*
X005180Y009180D01*
X005180Y011680D01*
X006180Y010680D02*
X006180Y010180D01*
X008180Y008180D01*
X008180Y008182D01*
X008680Y007680D02*
X011180Y005180D01*
X011180Y005182D01*
X011180Y004182D02*
X011180Y004180D01*
X012680Y004180D01*
X012680Y004680D01*
X014180Y004680D01*
X014180Y003680D02*
X014180Y003180D01*
X011180Y003180D01*
X011180Y003182D01*
X009680Y001680D02*
X008680Y000680D01*
X002180Y000680D01*
X002180Y003180D01*
X002680Y004180D02*
X001180Y004180D01*
X001180Y004680D02*
X003180Y004680D01*
X003180Y005180D01*
X002680Y004180D02*
X002680Y001680D01*
X006180Y001180D02*
X006180Y003180D01*
X007180Y003180D02*
X008180Y003180D01*
X008180Y003182D01*
X008180Y002182D02*
X008180Y002180D01*
X009180Y002180D01*
X009180Y004680D01*
X007180Y004680D01*
X007180Y004180D02*
X008180Y004180D01*
X008180Y004182D01*
X008180Y005180D02*
X008180Y005182D01*
X008180Y005180D02*
X009680Y005180D01*
X009680Y001680D01*
X008180Y001182D02*
X008180Y001180D01*
X006180Y001180D01*
X001180Y005180D02*
X003180Y007180D01*
X003180Y009180D01*
X003028Y009028D01*
X003680Y008180D02*
X003680Y011180D01*
X005680Y010180D02*
X006180Y010680D01*
X006680Y011180D01*
X007180Y011180D01*
X007180Y011680D02*
X006680Y011180D01*
X007180Y011680D02*
X007180Y012680D01*
X006680Y014680D02*
X003680Y014680D01*
X001680Y012680D01*
X003680Y008180D02*
X005180Y006680D01*
X008180Y010180D02*
X008180Y010182D01*
X008180Y010180D02*
X010680Y007680D01*
X012180Y007680D01*
X013180Y008680D01*
X013680Y009180D01*
X013680Y010680D01*
X012680Y011680D01*
X011180Y011680D02*
X013180Y009680D01*
X012180Y007680D02*
X012180Y007180D01*
X012180Y006680D02*
X013680Y006680D01*
X013680Y007180D01*
X013680Y006180D02*
X012180Y006180D01*
X011180Y006180D01*
X011180Y006182D01*
X011180Y007180D02*
X011180Y007182D01*
X011180Y007180D02*
X011680Y007180D01*
X012180Y006680D01*
X011180Y008180D02*
X011180Y008182D01*
X011180Y008180D02*
X009180Y010180D01*
X009180Y012180D01*
X006680Y014680D01*
X010180Y013680D02*
X010180Y012680D01*
X011180Y011680D01*
D23*
X008180Y011680D02*
X008180Y012680D01*
X007180Y013680D01*
X005680Y013680D01*
X004680Y012680D01*
X004680Y009180D01*
X005680Y008180D01*
X005680Y006180D01*
X005180Y005680D01*
X005180Y002180D01*
X005680Y001680D01*
D24*
X006180Y003180D03*
X003180Y005180D03*
X002680Y001680D03*
X005180Y011680D03*
M02*
